<?xml version="1.0" encoding="utf-8"?>
<!-- Generator: Adobe Illustrator 26.2.1, SVG Export Plug-In . SVG Version: 6.00 Build 0)  -->
<svg version="1.1" id="Layer_1" xmlns="http://www.w3.org/2000/svg" xmlns:xlink="http://www.w3.org/1999/xlink" x="0px" y="0px"
	 viewBox="0 0 767.8 494.4" style="enable-background:new 0 0 767.8 494.4;" xml:space="preserve">
<style type="text/css">
	.st0{fill:#75BB2D;}
	.st1{fill:#040505;}
</style>
<g id="_x23_ffffffff">
</g>
<g id="_x23_75bb2dff">
	<path class="st0" d="M665.2,0c33.7,25.9,67.3,51.8,100.9,77.8c-0.1,101.5,0,203,0,304.5c-33.6,0-67.2,0-100.9,0
		c0-44.6,0-89.3,0-133.9c-23.6,0-47.2,0-70.8,0c0,44.6,0,89.2,0,133.8c-33.6,0-67.2,0-100.8,0c-0.1-6.1,0-12.2,0-18.4
		c-16.5,9.8-35.2,15.8-54.3,17.7c-9.3,1-18.7,0.6-28,0.7c-83.4,0-166.8,0-250.1,0c0-89.2,0-178.5,0-267.7c-53.1,0-106.2,0-159.4,0
		C27.9,81.1,54.1,47.5,80.4,14c171.3,0.1,342.7,0,514,0c0.2,44.6,0,89.2,0.1,133.8c23.6,0.1,47.2,0,70.7,0.1
		C665.2,98.6,665.2,49.3,665.2,0 M29.7,100.9c48.4,0.1,96.8-0.1,145.2,0.1c0,89.2,0,178.5,0,267.7c24.5,0,49.1,0,73.6,0
		c0-89.2,0-178.5,0-267.7c48.4,0,96.7,0,145.1,0c-19-24.4-38.2-48.8-57.2-73.2c-83.1,0-166.1,0-249.2,0
		C67.8,52,48.8,76.5,29.7,100.9 M348.5,27.7c19.1,24.3,38,48.7,57.1,72.9c9.8,1.2,19.9-0.8,29.7,1.4c21,4.4,37.9,24.2,38.1,45.8
		c0.2,29.3,0,58.6,0.1,88c-0.1,7.7,0.5,15.6-1.5,23.2c-3.1,13.1-12.4,24.2-24,30.7c-7.5,4.2-16.2,6-24.8,5.9
		c-25.4,0-50.7,0.1-76-0.1l-0.3-0.4c-0.1-60.1,0-120.1-0.1-180.2c-24.5,0-49.1,0-73.6,0c0,84.6,0,169.2,0,253.8c49.3,0,98.7,0,148,0
		c11.1,0.2,22.2-0.8,33-3.4c29.4-6.8,55-25.9,72.2-50.4c11-15.7,17.8-34.1,19.9-53.1c1.1-8.9,0.8-18,0.8-27c0-28.7,0-57.4,0-86
		c-0.1-15-2.6-30-8.1-44c-5.7-14.6-14.7-27.9-25.6-39.2c-13.3-13.8-29.5-25-47.7-31.2c-13.3-4.7-27.4-6.7-41.5-6.7
		C398.9,27.7,373.7,27.7,348.5,27.7 M474.2,27.8C500,38.5,522,57.5,537,81c12.5,19.5,18.9,42.7,19.2,65.8c0.2,24.4,0,48.7,0.1,73.1
		c-0.1,11,0.2,22-0.2,33c-0.7,18.9-5.5,37.8-14.5,54.5c-8.5,16-20.5,30-34.5,41.5c0,6.6,0,13.2,0,19.8c24.5,0,49.1,0,73.6,0
		c0-44.6,0-89.2,0-133.8c32.7,0,65.3-0.1,98,0c0,44.6,0,89.2,0,133.8c24.5,0,49.1,0,73.6,0c0-94.7-0.1-189.4,0.1-284.1
		c-24.5-19.1-49-38-73.7-56.9c0,44.6,0,89.2,0,133.8c-32.7,0-65.3,0-98,0c-0.1-44.6-0.1-89.2,0-133.8
		C545.3,27.6,509.7,27.6,474.2,27.8 M360.5,281.8c17.5,0.3,35.1,0.1,52.7,0.1c8-0.1,16.3,0.7,24-2.3c10.5-4.1,19.1-13.4,21.7-24.4
		c1.1-5,0.9-10.2,1-15.4c-0.1-30.5,0.1-60.9-0.1-91.4c0.1-17.8-15.8-33.6-33.5-33.9c-21.9-0.1-43.7,0-65.6-0.1
		C360.4,170.3,360.7,226,360.5,281.8z"/>
</g>
<g id="_x23_040505ff">
	<path class="st1" d="M29.7,100.9C48.8,76.5,67.8,52,87.1,27.7c83.1,0.1,166.1,0,249.2,0c19.1,24.4,38.2,48.8,57.2,73.2
		c-48.4,0-96.7,0-145.1,0c0,89.2,0,178.5,0,267.7c-24.5,0-49.1,0-73.6,0c0-89.2,0-178.5,0-267.7C126.5,100.9,78.1,101,29.7,100.9z"
		/>
	<path class="st1" d="M348.5,27.7c25.2,0,50.5,0,75.7,0c14.1,0,28.2,2,41.5,6.7c18.2,6.3,34.4,17.4,47.7,31.2
		c10.9,11.3,19.9,24.6,25.6,39.2c5.5,14,8.1,29,8.1,44c0,28.7,0,57.4,0,86c0,9,0.3,18-0.8,27c-2,19-8.9,37.5-19.9,53.1
		c-17.2,24.5-42.8,43.6-72.2,50.4c-10.8,2.6-21.9,3.5-33,3.4c-49.4,0-98.7,0-148,0c0-84.6,0-169.2,0-253.8c24.5,0,49.1,0,73.6,0
		c0,60.1-0.1,120.1,0.1,180.2l0.3,0.4c25.3,0.2,50.7,0,76,0.1c8.6,0.1,17.2-1.7,24.8-5.9c11.6-6.5,20.8-17.7,24-30.7
		c2-7.6,1.4-15.4,1.5-23.2c0-29.3,0.1-58.6-0.1-88c-0.2-21.6-17.1-41.4-38.1-45.8c-9.8-2.2-19.9-0.2-29.7-1.4
		C386.4,76.4,367.5,51.9,348.5,27.7z"/>
	<path class="st1" d="M474.2,27.8c35.5-0.2,71.1-0.2,106.7,0c0,44.6-0.1,89.2,0,133.8c32.7,0,65.3,0,98,0c0-44.6,0-89.2,0-133.8
		c24.6,18.8,49.2,37.8,73.7,56.9c-0.1,94.7,0,189.4-0.1,284.1c-24.5,0-49.1,0-73.6,0c0-44.6,0-89.2,0-133.8c-32.7-0.1-65.4,0-98,0
		c0,44.6,0,89.2,0,133.8c-24.5,0-49.1,0-73.6,0c0-6.6,0-13.2,0-19.8c14-11.5,26-25.5,34.5-41.5c9-16.7,13.8-35.6,14.5-54.5
		c0.4-11,0.1-22,0.2-33c0-24.3,0.1-48.7-0.1-73.1c-0.3-23.1-6.8-46.3-19.2-65.8C522,57.5,500,38.5,474.2,27.8z"/>
	<path class="st1" d="M12.6,443.9c8.8-0.2,17.7,0,26.5-0.1c0.6,6.8,1.2,13.6,1.7,20.4c0.6,2.3,0.3,4.6,0.4,7
		c6.2-8.7,11.3-18.3,17-27.4c8.7,0,17.4,0,26.1,0c-3.3,4.9-4.3,10.9-5.8,16.5c-2.1,8.3-4.2,16.6-6.2,24.9c-0.8,3-0.7,6-0.6,9.1
		c-7.6,0-15.1,0-22.7,0c1.2-2.6,2.7-5.2,3.3-8c1.9-7.6,3.8-15.3,5.7-22.9c0.4-1.9,1.1-3.8,1-5.7C51.8,470,44.5,482.3,37,494.4
		c-4.4-0.1-8.9-0.1-13.3,0c-1.2-11-2.2-21.9-3-32.9c-0.4-1.6-0.7-3.2-0.9-4.8c-1.7,12.7-7.7,24.8-7.5,37.8c-4-0.1-8.1,0-12.1,0
		c3.4-4.9,4.2-10.8,5.7-16.4c2.2-8.9,4.4-17.7,6.7-26.6C12.9,448.9,12.6,446.4,12.6,443.9z"/>
	<path class="st1" d="M109.5,443.8c7.7,0,15.4,0,23.1,0c1.7,10.7,3.6,21.4,5.2,32.1c1.2,6.2,1.5,12.7,4.5,18.4
		c-8.6,0-17.2,0.1-25.8-0.1c3.4-3.8,2-9,1.1-13.4c-7.1,0-14.1,0-21.2,0c-2.1,2.7-4.2,5.5-6.1,8.4c-0.5,1.7-0.5,3.4-0.1,5.2
		c-5.1-0.1-10.1,0-15.2-0.1c8.8-8.9,15.3-19.8,22.9-29.7c4.2-6,8.7-11.6,12.8-17.7C110.4,446.1,109.8,444.6,109.5,443.8
		 M102.6,471.9c4.5-0.1,9.1,0,13.6,0c-1-5-1.6-10.2-2.7-15.2C109.7,461.6,106.5,466.9,102.6,471.9z"/>
	<path class="st1" d="M158.1,443.8c9,0,18,0,27,0c3.4,13.3,7.1,26.7,9.6,40.2c2.9-10.3,5.2-20.7,7.9-31.1c0.8-3,1.2-6,1-9.1
		c3.9-0.1,7.8,0,11.7,0c-1.2,2.6-2.7,5.1-3.4,7.9c-3.6,14.2-6.6,28.6-10.9,42.7c-8.2-0.1-16.5-0.1-24.7,0
		c-3.5-13.3-6.7-26.6-10-39.9c-3.1,10.1-5.2,20.6-7.9,30.8c-0.9,2.9-0.8,6-0.7,9c-4.1,0-8.2,0.1-12.2-0.1c3.8-5.3,4.4-12,6.2-18.1
		c2.2-9.9,5.4-19.6,7-29.6C158.5,445.9,158.2,444.5,158.1,443.8z"/>
	<path class="st1" d="M220.2,443.8c7.6,0,15.2,0,22.8,0c-4.5,7.6-5.2,16.7-7.6,25c-1,5.3-3.5,10.4-3,15.9c3.9,1.1,8,0.5,11.9,0.6
		c3.3-0.1,6.6,0.3,9.8-0.3c2-0.3,2.6-2.5,3-4.1c2.3-9.2,4.6-18.3,6.9-27.5c0.7-3.1,1.8-6.4,0.7-9.6c4.1,0,8.2,0,12.3,0
		c-3.5,5.1-4.4,11.3-5.9,17.1c-1.7,6.6-3.3,13.3-5,19.9c-1,4-3,8-6.3,10.6c-3.1,2-6.8,2.9-10.4,2.9c-9.5-0.1-19,0-28.5,0
		c-2.2-0.6-4.7-1-6.2-2.8c-3.1-3-2.6-7.8-1.8-11.6c2.3-9.5,4.8-19.1,7.1-28.6C220.4,448.9,220.3,446.3,220.2,443.8z"/>
	<path class="st1" d="M281.6,443.9c14.5-0.1,29.1,0,43.6,0c-0.1,3.3-0.6,6.5-0.6,9.8c-1.5,1.1-3.3-0.5-4.9-0.8
		c-6.4-0.1-12.8-0.1-19.3,0c-0.8,3.6-1.7,7.3-2.5,10.9c7.5-0.1,15,0.6,22.3-1.5c-1.1,3.9-1.9,7.8-3.1,11.6c-7.1-2-14.5-0.8-21.7-1.1
		c-1.2,5.2-2.6,10.4-3.8,15.5c0,2,0,3.9,0,5.9c-7.6,0-15.1,0-22.7,0c3.2-5,4.1-11,5.6-16.6c2.2-8.6,4.3-17.3,6.5-25.9
		C281.9,449.2,281.7,446.5,281.6,443.9z"/>
	<path class="st1" d="M352.4,443.8c7.7,0,15.5,0,23.2,0c1.9,10.3,3.3,20.8,5.2,31.1c1.3,6.5,1.5,13.4,4.5,19.4
		c-8.6,0-17.2,0.1-25.8-0.1c3.5-3.8,2.2-9,1.1-13.5c-7.1,0.1-14.1,0-21.2,0c-2.7,4.2-7.5,7.9-6.2,13.5c-4.9-0.2-9.9,0.1-14.8-0.2
		c6.8-6.7,11.9-15,17.7-22.5c6-8.2,11.9-16.5,18-24.7C353.6,446.1,352.8,444.6,352.4,443.8 M354.4,459.7c-2.8,4-5.7,8-8.4,12.1
		c4.4,0,8.9,0,13.3,0c-0.7-4.9-1.9-9.7-2.3-14.7C355.7,457.4,355.1,458.8,354.4,459.7z"/>
	<path class="st1" d="M399.9,453.6c2.1-5.4,7.2-9.7,13.1-9.8c10.7,0,21.5,0,32.2,0c-0.3,3.4-0.5,6.8-1.1,10.1
		c-7.4-2.1-15.2-0.6-22.8-1.1c-3.1,1.6-2.9,5.5-3.9,8.5c-1.7,7.8-4.5,15.5-5.4,23.5c2,0.7,4.1,0.6,6.1,0.6
		c6.3-0.2,12.8,0.6,18.9-1.4c-1.9,3.3-2.6,7.2-4.6,10.3c-10.1,0.2-20.2,0-30.2,0.1c-3.6,0.1-7.4-1.3-9.1-4.7
		c-2.1-5.5,0.6-11.3,1.7-16.8C396.6,466.5,397.6,459.9,399.9,453.6z"/>
	<path class="st1" d="M449.1,454.8c0.6-3.9,2.5-7.4,4.1-11c15.8,0,31.7,0,47.6,0c0.1,3.7-0.6,7.4-0.7,11.1c-4.7-3-10.3-1.9-15.5-2
		c-2.8,11.9-6,23.7-8.8,35.5c0,2,0,4,0,5.9c-7.6,0-15.1,0-22.7,0c1.4-2.4,2.7-4.9,3.3-7.6c2.9-11.3,5.6-22.6,8.5-33.9
		C459.5,453,453.9,452,449.1,454.8z"/>
	<path class="st1" d="M506.5,443.8c7.7,0.1,15.4,0,23.2,0.1c-3.5,5.1-4.4,11.3-5.9,17.2c-1.4,6.5-3.1,12.9-4.7,19.3
		c-0.5,1.4-0.3,2.9-0.2,4.4c7,1.3,14.3,0.4,21.4,0.5c3.1-0.2,3.2-3.5,3.9-5.8c1.8-7.5,3.8-15,5.6-22.6c1-4.3,2.6-8.6,1.8-13
		c4,0,7.9,0,11.9,0c-1.2,2.6-2.8,5.2-3.5,8.1c-2.6,10.1-5,20.2-7.6,30.2c-1.8,6.3-6.9,11.8-13.7,12.1c-9.1,0.3-18.3,0-27.5,0.1
		c-3.4,0-7.4,0-9.9-2.7c-2.7-2.8-3-7.1-2.1-10.8c2.2-10.2,5.1-20.2,7.4-30.3C507,448.4,507.7,445.9,506.5,443.8z"/>
	<path class="st1" d="M568.2,443.8c14,0,28,0,42,0c3.5,0,7.7,0.9,9.5,4.3c1.1,4.1-0.6,8.2-1.6,12.2c-1,3.3-1.2,7.1-3.8,9.7
		c-1.7,2-4.3,2.4-6.7,2.9c1.9,7.1,3.1,14.4,5.3,21.4c-7.2,0.1-14.4,0-21.7,0.1c-1.4-7.1-2.5-14.3-3.6-21.5c-1.8,0-3.5,0-5.3,0
		c-1.5,7-4.8,14-3.8,21.2c-7.7,0.6-15.4,0.2-23.1,0.2c3.2-4.4,4-9.9,5.4-15c2.3-9.1,4.5-18.2,6.9-27.4
		C568.5,449.3,568.1,446.5,568.2,443.8 M587.3,452.8c-1.1,3.6-1.9,7.3-2.7,11c4.1-0.1,8.3,0.2,12.4-0.4c1.9-3.2,2.4-7,2.8-10.6
		C595.6,452.8,591.5,452.8,587.3,452.8z"/>
	<path class="st1" d="M627.6,443.9c7.6-0.2,15.2,0,22.8-0.1c-1.4,2.8-3,5.6-3.6,8.7c-2.9,11.4-5.7,22.8-8.5,34.3
		c-0.7,2.4-0.6,4.9-0.2,7.3c-7.6,0.5-15.3,0.1-23,0.2c3.3-4.9,4.2-10.9,5.7-16.5c2.2-8.8,4.4-17.7,6.7-26.5
		C627.9,448.9,627.6,446.4,627.6,443.9z"/>
	<path class="st1" d="M655.2,443.8c9,0,17.9,0,26.9,0c2.7,9.6,4.7,19.3,7.2,28.9c0.9,3.7,2.2,7.4,2.4,11.2
		c2.6-8.8,4.5-17.7,6.8-26.5c1-4.5,2.8-9,1.9-13.7c4,0,8,0,12,0c-1.3,2.8-2.9,5.5-3.6,8.5c-3.6,13.9-6.9,27.9-10.5,41.8
		c-8.2,0.7-16.7,0-25,0.3c-3.3-13.3-6.6-26.6-9.9-39.8c-3.1,10.1-5.2,20.6-8,30.8c-0.9,2.9-0.8,6-0.7,9c-4.1,0-8.2,0-12.2-0.1
		c3.2-4.4,4-9.9,5.4-15c2.3-9.3,4.6-18.7,7-28C655.5,448.9,655.1,446.3,655.2,443.8z"/>
	<path class="st1" d="M723.6,445.1c3.6-1.7,7.7-1.3,11.6-1.3c10.8,0,21.7,0,32.5,0c-0.7,3.3-0.2,7.1-1.5,10.1c-7.5-2-15.3-0.7-23-1
		c-2.6,0.3-5.7-0.8-7.9,1.1c-3,9.9-4.9,20.2-7.9,30.1c2.7,2.3,6.4,1.1,9.6,1.3c1.9,0.2,3.2-1.2,4.1-2.7c0.5-3.3,1.6-6.5,2.2-9.8
		c-3.5-0.3-6.9,0.4-10.3,0.2c0.9-3.1,1.6-6.2,2.5-9.2c10.7,0,21.5,0,32.2,0c-1.5,2.3-3.5,4.4-4,7.2c-1.5,5.9-3.3,11.8-4.5,17.8
		c-0.4,1.8,0.2,3.7,0.5,5.5c-5.7,0.1-11.5,0-17.2,0.1c0-0.8,0.1-2.4,0.1-3.2c-1.5,1.8-3.6,3.1-6.1,3.2c-6.4,0.2-12.9,0.1-19.4,0
		c-2.6,0-5-1.1-7.2-2.5c-1.5-2.7-2.6-5.8-1.8-9c1.8-8.4,4.2-16.7,6.1-25.1C715.6,452.5,718.5,447.2,723.6,445.1z"/>
</g>
</svg>
